<?xml version="1.0" encoding="UTF-8" standalone="no"?>
<svg
   width="800"
   height="800"
   viewBox="0 0 24 24"
   version="1.1"
   id="svg2"
   sodipodi:docname="default.svg"
   inkscape:version="1.4.2 (ebf0e940d0, 2025-05-08)"
   xmlns:inkscape="http://www.inkscape.org/namespaces/inkscape"
   xmlns:sodipodi="http://sodipodi.sourceforge.net/DTD/sodipodi-0.dtd"
   xmlns="http://www.w3.org/2000/svg"
   xmlns:svg="http://www.w3.org/2000/svg">
  <defs
     id="defs2" />
  <sodipodi:namedview
     id="namedview2"
     pagecolor="#ffffff"
     bordercolor="#000000"
     borderopacity="0.25"
     inkscape:showpageshadow="2"
     inkscape:pageopacity="0.0"
     inkscape:pagecheckerboard="0"
     inkscape:deskcolor="#d1d1d1"
     inkscape:zoom="1.10375"
     inkscape:cx="399.547"
     inkscape:cy="400"
     inkscape:window-width="1920"
     inkscape:window-height="1134"
     inkscape:window-x="0"
     inkscape:window-y="0"
     inkscape:window-maximized="1"
     inkscape:current-layer="svg2" />
  <path
     d="M20.501 6.028V6h-.02A10.28 10.28 0 0 0 4.519 6H4.5v.028a10.26 10.26 0 0 0 0 12.944V19h.02a10.28 10.28 0 0 0 15.962 0h.021v-.028a10.26 10.26 0 0 0 0-12.944zM13 6V3.272A4.53 4.53 0 0 1 15.54 6zm2.935 1a16.8 16.8 0 0 1 .853 5H13V7zM12 3.272V6H9.46A4.53 4.53 0 0 1 12 3.272M12 7v5H8.212a16.8 16.8 0 0 1 .853-5zm-4.787 5H3.226a9.23 9.23 0 0 1 1.792-5h2.984a18 18 0 0 0-.79 5zm0 1a18 18 0 0 0 .789 5H5.018a9.23 9.23 0 0 1-1.792-5zm1 0H12v5H9.065a16.8 16.8 0 0 1-.853-5zM12 19v2.728A4.53 4.53 0 0 1 9.46 19zm1 2.728V19h2.54A4.53 4.53 0 0 1 13 21.728M13 18v-5h3.788a16.8 16.8 0 0 1-.853 5zm4.787-5h3.987a9.23 9.23 0 0 1-1.792 5h-2.984a18 18 0 0 0 .79-5zm0-1a18 18 0 0 0-.789-5h2.984a9.23 9.23 0 0 1 1.792 5zm1.352-6h-2.501a8.5 8.5 0 0 0-1.441-2.398A9.3 9.3 0 0 1 19.139 6M9.803 3.602A8.5 8.5 0 0 0 8.363 6H5.86a9.3 9.3 0 0 1 3.942-2.398zM5.861 19h2.501a8.5 8.5 0 0 0 1.441 2.398A9.3 9.3 0 0 1 5.861 19m9.336 2.398A8.5 8.5 0 0 0 16.637 19h2.502a9.3 9.3 0 0 1-3.942 2.398"
     id="path1"
     style="fill:#f9f9f9" />
  <path
     fill="none"
     d="M0 0h24v24H0z"
     id="path2" />
</svg>
