<svg width="1920" height="837" version="1.1" xmlns="http://www.w3.org/2000/svg" desc="Created with imagetracer.js version 0.2.1" ><path fill="rgb(19,84,146)" stroke="rgb(19,84,146)" stroke-width="1" opacity="0.9921568627450981" d="M 1279.5 24 L 1301.5 24 L 1312.5 27 Q 1328.8 33.7 1339 46.5 L 1350 66.5 L 1428 301 L 1276.5 301 L 1276 300.5 L 1276 263 L 1375.5 263 L 1376 261.5 L 1313 73.5 Q 1310.1 65.4 1303.5 61 L 1295.5 58 L 1287.5 58 Q 1279.8 60.3 1275 65.5 L 1271 72.5 L 1193 301 L 1031.5 301 Q 1029.8 298.3 1023.5 300 Q 992.9 293.6 977 272.5 L 966 253.5 L 961 234.5 L 961 94.5 Q 966.9 61.9 988.5 45 Q 998.3 36.8 1011.5 32 L 1032.5 28 L 1162 28 L 1162 65.5 L 1161.5 66 L 1031.5 66 Q 1016 69 1008 79.5 L 1002 89.5 L 999 101.5 L 999 227.5 Q 1001.2 228.8 1000 233.5 L 1005 245.5 L 1013.5 255 Q 1020.1 260.9 1030.5 263 L 1125 263 L 1125 160 L 1055 160 L 1055 123 L 1161 123 L 1161 272.5 L 1163 273 L 1217 111.5 L 1233 67.5 L 1234 61.5 Q 1240.1 46.6 1251.5 37 Q 1262.3 27.3 1279.5 24 Z " /><path fill="rgb(19,84,146)" stroke="rgb(19,84,146)" stroke-width="1" opacity="0.9921568627450981" d="M 595.5 28 L 721.5 28 L 722 28.5 L 722 66 L 593.5 66 Q 572 70.5 561 85.5 Q 554 93.5 551 105.5 L 550 124.5 Q 554.1 146.9 569.5 158 Q 579.1 166.4 594.5 169 L 637.5 169 Q 638.8 171.2 643.5 170 Q 656.2 173.8 664 182.5 Q 670.9 189.6 674 200.5 Q 676.4 207.6 675 218.5 Q 671.3 235.8 659.5 245 Q 651.9 251.9 639.5 254 L 511 254 L 511 217.5 L 511.5 217 L 632.5 217 L 636 214.5 L 637 211.5 L 633.5 207 L 598.5 207 L 597.5 206 L 586.5 206 L 573.5 203 Q 548.4 194.6 533 176.5 Q 522.2 164.3 516 147.5 L 512 131.5 L 511 115.5 L 512 114.5 L 513 98.5 L 518 82.5 Q 526.7 62.2 542.5 49 Q 553.4 39.9 567.5 34 L 576.5 31 L 586.5 29 L 594.5 29 L 595.5 28 Z " /><path fill="rgb(19,84,146)" stroke="rgb(19,84,146)" stroke-width="1" opacity="0.9921568627450981" d="M 811.5 28 L 945.5 28 L 946 28.5 L 946 66 L 809.5 66 Q 793.3 69.8 785 81.5 Q 779.9 88.4 778 98.5 L 778 230.5 Q 781.4 247.6 793.5 256 Q 799.9 261.1 809.5 263 L 946 263 L 946 300.5 L 945.5 301 L 810.5 301 L 809.5 300 L 797.5 299 L 788.5 296 Q 771.4 289.1 760 276.5 Q 745.4 261.6 741 236.5 L 741 92.5 Q 746.6 64.1 764.5 48 Q 774.6 38.6 788.5 33 L 811.5 28 Z " /><path fill="rgb(19,84,146)" stroke="rgb(19,84,146)" stroke-width="1" opacity="0.9921568627450981" d="M 1289.5 67 L 1294.5 67 L 1302 72.5 L 1363 254 L 1275 254 L 1275 222.5 L 1273 223.5 L 1248 299.5 L 1246.5 301 L 1203.5 301 L 1203 298.5 L 1263 123.5 L 1265 120.5 L 1275 88.5 L 1282 71 L 1289.5 67 Z M 1291 174 L 1277 212 L 1303 212 L 1303 209 L 1291 174 Z " /><path fill="rgb(19,84,146)" stroke="rgb(19,84,146)" stroke-width="1" opacity="0.9921568627450981" d="M 594.5 75 L 721.5 75 L 722 75.5 L 722 113 L 600.5 113 L 597 115.5 L 596 117.5 L 599.5 122 L 601.5 123 L 645.5 123 L 659.5 126 Q 684.6 134.4 700 152.5 Q 709.9 163.6 716 178.5 L 721 197.5 L 722 217.5 L 721 218.5 L 721 226.5 L 719 235.5 L 713 251.5 Q 704.1 269.1 689.5 281 Q 673.1 295.1 647.5 300 L 639.5 300 L 638.5 301 L 511 301 L 511 263.5 L 511.5 263 L 639.5 263 Q 661.8 258.3 673 242.5 L 682 224.5 L 683 219.5 L 683 203.5 Q 678.6 181.9 663.5 171 Q 653.7 162.8 638.5 160 L 594.5 160 L 589.5 159 Q 576.8 155.2 569 146.5 Q 562.2 139.3 559 128.5 L 558 111.5 Q 561.4 94.4 572.5 85 Q 580.7 77.2 594.5 75 Z " /><path fill="rgb(19,84,146)" stroke="rgb(19,84,146)" stroke-width="1" opacity="0.9921568627450981" d="M 810.5 75 L 944.5 75 L 945 75.5 L 945 113 L 832.5 113 L 826 117.5 L 825 123 L 919 123 L 919 160 L 787 160 L 787 99.5 Q 789.6 86.6 798.5 80 L 810.5 75 Z " /><path fill="rgb(19,84,146)" stroke="rgb(19,84,146)" stroke-width="1" opacity="0.9921568627450981" d="M 1030.5 75 L 1161.5 75 L 1162 75.5 L 1162 112 L 1054.5 112 L 1048 115.5 L 1046 119.5 L 1046 208.5 L 1049.5 214 L 1053.5 216 L 1076.5 216 L 1078 214.5 L 1078 207 L 1055 207 L 1055 169 L 1115 169 L 1115 254 L 1030.5 254 Q 1020 251.5 1014 244.5 L 1008 232.5 L 1008 96.5 Q 1010.6 87.6 1016.5 82 L 1030.5 75 Z " /><path fill="rgb(19,84,146)" stroke="rgb(19,84,146)" stroke-width="1" opacity="0.9921568627450981" d="M 787 170 L 918.5 170 L 919 170.5 L 919 207 L 825.5 207 L 825 210.5 L 830.5 217 L 833.5 218 L 946 218 L 946 254.5 L 945.5 255 L 810.5 255 Q 797.9 252.6 792 243.5 L 787 230.5 L 787 170 Z " /><path fill="rgb(19,84,146)" stroke="rgb(19,84,146)" stroke-width="1" opacity="0.9921568627450981" d="M 1514.5 358 L 1519.5 358 L 1533.5 362 L 1556.5 366 L 1570.5 370 L 1593.5 374 L 1607.5 378 L 1616.5 379 L 1630.5 383 L 1653.5 387 L 1667.5 391 L 1690.5 395 L 1704.5 399 L 1713.5 400 L 1727.5 404 L 1736.5 405 L 1741.5 407 L 1750.5 408 L 1764.5 412 L 1773.5 413 L 1778.5 415 L 1787.5 416 L 1801.5 420 L 1810.5 421 L 1815.5 423 L 1824.5 424 L 1838.5 428 L 1847.5 429 L 1852.5 431 L 1920 445 L 1781 824 L 1199.5 824 L 1198.5 823 L 1184.5 823 L 1183.5 822 L 1169.5 822 L 1168.5 821 L 1154.5 821 L 1153.5 820 L 1139.5 820 L 1138.5 819 L 1124.5 819 L 1123.5 818 L 1109.5 818 L 1108.5 817 L 1095.5 817 L 1094.5 816 L 1080.5 816 L 1079.5 815 L 1065.5 815 L 1064.5 814 L 1050.5 814 L 1049.5 813 L 1035.5 813 L 1034.5 812 L 1020.5 812 L 1019.5 811 L 1005.5 811 L 1004.5 810 L 991.5 810 L 990.5 809 L 976.5 809 L 975.5 808 L 961.5 808 L 960.5 807 L 946.5 807 L 945.5 806 L 931.5 806 L 930.5 805 L 916.5 805 L 915.5 804 L 901.5 804 L 900.5 803 L 886.5 803 L 885.5 802 L 872.5 802 L 871.5 801 L 857.5 801 L 856.5 800 L 842.5 800 L 841.5 799 L 802.5 797 L 801.5 798 L 793.5 798 L 792.5 799 L 784.5 799 L 783.5 800 L 775.5 800 L 774.5 801 L 766.5 801 L 765.5 802 L 757.5 802 L 756.5 803 L 748.5 803 L 747.5 804 L 739.5 804 L 738.5 805 L 730.5 805 L 729.5 806 L 721.5 806 L 720.5 807 L 712.5 807 L 711.5 808 L 703.5 808 L 702.5 809 L 694.5 809 L 693.5 810 L 685.5 810 L 684.5 811 L 676.5 811 L 675.5 812 L 667.5 812 L 666.5 813 L 658.5 813 L 657.5 814 L 649.5 814 L 648.5 815 L 640.5 815 L 639.5 816 L 631.5 816 L 630.5 817 L 622.5 817 L 621.5 818 L 613.5 818 L 612.5 819 L 604.5 819 L 603.5 820 L 595.5 820 L 594.5 821 L 586.5 821 L 585.5 822 L 577.5 822 L 576.5 823 L 568.5 823 L 567.5 824 L 559.5 824 L 558.5 825 L 550.5 825 L 549.5 826 L 541.5 826 L 540.5 827 L 532.5 827 L 531.5 828 L 523.5 828 L 522.5 829 L 514.5 829 L 513.5 830 L 505.5 830 L 504.5 831 L 496.5 831 L 495.5 832 L 487.5 832 L 486.5 833 L 478.5 833 L 477.5 834 L 469.5 834 L 468.5 835 L 447.5 837 L 435.5 834 L 394.5 828 L 388.5 826 L 347.5 820 L 341.5 818 L 336.5 818 L 335.5 817 L 300.5 812 L 294.5 810 L 259.5 805 L 253.5 803 L 212.5 797 L 206.5 795 L 165.5 789 L 159.5 787 L 124.5 782 L 118.5 780 L 95.5 777 L 94 775.5 L 0 442 L 237.5 380 L 250.5 380 L 251.5 381 L 264.5 381 L 265.5 382 L 278.5 382 L 279.5 383 L 292.5 383 L 293.5 384 L 306.5 384 L 307.5 385 L 320.5 385 L 321.5 386 L 334.5 386 L 335.5 387 L 348.5 387 L 349.5 388 L 362.5 388 L 363.5 389 L 399.5 391 L 406.5 393 L 412.5 393 L 419.5 395 L 425.5 395 L 432.5 397 L 458.5 400 L 465.5 402 L 471.5 402 L 478.5 404 L 484.5 404 L 491.5 406 L 497.5 406 L 504.5 408 L 510.5 408 L 517.5 410 L 523.5 410 L 530.5 412 L 543.5 413 L 550.5 415 L 556.5 415 L 563.5 417 L 569.5 417 L 570.5 418 L 600 422 Q 598 425.1 599 432 L 557.5 426 L 556.5 425 L 550.5 425 L 543.5 423 L 517.5 420 L 510.5 418 L 504.5 418 L 497.5 416 L 491.5 416 L 484.5 414 L 478.5 414 L 471.5 412 L 465.5 412 L 458.5 410 L 419.5 405 L 412.5 403 L 406.5 403 L 399.5 401 L 393.5 401 L 392.5 400 L 379.5 400 L 378.5 399 L 365.5 399 L 364.5 398 L 351.5 398 L 350.5 397 L 337.5 397 L 336.5 396 L 323.5 396 L 322.5 395 L 309.5 395 L 308.5 394 L 253.5 391 L 252.5 390 L 238.5 390 L 180.5 406 L 161.5 410 L 157.5 412 L 142.5 415 L 138.5 417 L 123.5 420 L 119.5 422 L 81.5 431 L 77.5 433 L 39.5 442 L 35.5 444 L 20.5 447 L 12 450.5 L 102 768 L 451.5 827 L 452.5 826 L 460.5 826 L 461.5 825 L 469.5 825 L 470.5 824 L 478.5 824 L 479.5 823 L 487.5 823 L 488.5 822 L 496.5 822 L 497.5 821 L 505.5 821 L 506.5 820 L 514.5 820 L 515.5 819 L 523.5 819 L 524.5 818 L 532.5 818 L 533.5 817 L 541.5 817 L 542.5 816 L 550.5 816 L 551.5 815 L 559.5 815 L 560.5 814 L 568.5 814 L 569.5 813 L 577.5 813 L 578.5 812 L 586.5 812 L 587.5 811 L 595.5 811 L 596.5 810 L 604.5 810 L 605.5 809 L 613.5 809 L 614.5 808 L 622.5 808 L 623.5 807 L 631.5 807 L 632.5 806 L 640.5 806 L 641.5 805 L 649.5 805 L 650.5 804 L 658.5 804 L 659.5 803 L 667.5 803 L 668.5 802 L 676.5 802 L 677.5 801 L 685.5 801 L 686.5 800 L 694.5 800 L 695.5 799 L 703.5 799 L 704.5 798 L 712.5 798 L 713.5 797 L 721.5 797 L 722.5 796 L 730.5 796 L 731.5 795 L 739.5 795 L 740.5 794 L 748.5 794 L 749.5 793 L 757.5 793 L 758.5 792 L 766.5 792 L 767.5 791 L 809.5 787 L 810.5 788 L 824.5 788 L 825.5 789 L 839.5 789 L 840.5 790 L 854.5 790 L 855.5 791 L 868.5 791 L 869.5 792 L 883.5 792 L 884.5 793 L 898.5 793 L 899.5 794 L 958.5 797 L 959.5 798 L 972.5 798 L 973.5 799 L 987.5 799 L 988.5 800 L 1002.5 800 L 1003.5 801 L 1062.5 804 L 1063.5 805 L 1076.5 805 L 1077.5 806 L 1091.5 806 L 1092.5 807 L 1106.5 807 L 1107.5 808 L 1166.5 811 L 1167.5 812 L 1195.5 813 L 1196.5 814 L 1774 814 L 1907 452 L 1515.5 368 L 1162.5 451 L 1121.5 451 L 1120.5 450 L 1053.5 450 L 1052.5 449 L 986.5 449 L 985.5 448 L 919.5 448 L 918.5 447 L 852.5 447 L 851.5 446 L 731 445 L 734 435 L 770.5 435 L 771.5 436 L 837.5 436 L 838.5 437 L 904.5 437 L 905.5 438 L 971.5 438 L 972.5 439 L 1038.5 439 L 1039.5 440 L 1106.5 440 L 1107.5 441 L 1161.5 441 L 1514.5 358 Z " /><path fill="rgb(0,0,0)" stroke="rgb(0,0,0)" stroke-width="1" opacity="0" d="M 0 0 L 1288 0.5 L 1278.5 1 L 1260.5 6 Q 1239.4 14.9 1226 31.5 Q 1217.2 42.2 1212 56.5 L 1185.5 136 L 1185 5 L 1030.5 5 L 1029.5 6 L 1021.5 6 Q 988 12 968.5 32 L 968 5 L 809.5 5 L 808.5 6 L 800.5 6 Q 765.2 12.7 745.5 35 L 745 5 L 593.5 5 L 592.5 6 L 578.5 7 Q 537.8 16.8 515 44.5 Q 503.4 57.9 496 75.5 L 489 101.5 L 488 122.5 L 489 123.5 L 489 132.5 L 491 143.5 L 497 161.5 Q 504.6 179.4 517 192.5 L 488 193 L 488 324 L 640.5 324 L 641.5 323 L 655.5 322 L 675.5 316 Q 699.5 305.5 716 287.5 L 728.5 271 Q 736.9 285.6 748.5 297 Q 761.4 309.6 779.5 317 L 795.5 322 L 808.5 323 L 809.5 324 L 970 324 L 970.5 297 Q 982.7 309.8 1000.5 317 L 1016.5 322 L 1029.5 323 L 1030.5 324 L 1460 324 L 1460 320.5 L 1457 314.5 L 1372 57.5 Q 1363.6 34.4 1346.5 20 Q 1335.4 10.6 1320.5 5 L 1305.5 1 L 1295 0.5 L 1920 0 L 1920 444.5 L 1917.5 445 L 1847.5 429 L 1829.5 426 L 1824.5 424 L 1792.5 418 L 1787.5 416 L 1764.5 412 L 1750.5 408 L 1727.5 404 L 1713.5 400 L 1704.5 399 L 1690.5 395 L 1667.5 391 L 1653.5 387 L 1630.5 383 L 1616.5 379 L 1607.5 378 L 1593.5 374 L 1570.5 370 L 1556.5 366 L 1533.5 362 L 1519.5 358 L 1514.5 358 L 1161.5 441 L 1107.5 441 L 1106.5 440 L 1039.5 440 L 1038.5 439 L 972.5 439 L 971.5 438 L 905.5 438 L 904.5 437 L 838.5 437 L 837.5 436 L 771.5 436 L 770.5 435 L 734 435 L 734 419.5 L 732 413.5 Q 726.2 399.8 715.5 391 Q 703.5 381 685.5 377 Q 680.7 378.3 679.5 376 L 652.5 376 L 633.5 381 Q 621.5 386.5 613 395.5 Q 602.6 405.7 600 422 L 570.5 418 L 569.5 417 L 563.5 417 L 556.5 415 L 550.5 415 L 543.5 413 L 530.5 412 L 523.5 410 L 517.5 410 L 510.5 408 L 504.5 408 L 497.5 406 L 491.5 406 L 484.5 404 L 478.5 404 L 471.5 402 L 465.5 402 L 458.5 400 L 432.5 397 L 425.5 395 L 419.5 395 L 412.5 393 L 406.5 393 L 399.5 391 L 363.5 389 L 362.5 388 L 349.5 388 L 348.5 387 L 335.5 387 L 334.5 386 L 321.5 386 L 320.5 385 L 307.5 385 L 306.5 384 L 293.5 384 L 292.5 383 L 279.5 383 L 278.5 382 L 265.5 382 L 264.5 381 L 251.5 381 L 250.5 380 L 237.5 380 L 0 442 L 0 0 Z M 647 339 Q 642 342 641 348 Q 639 358 643 364 L 648 367 L 654 366 L 658 359 L 658 351 L 655 343 Q 654 338 647 339 Z M 709 343 L 705 345 Q 697 350 694 360 Q 693 368 695 371 L 700 373 Q 707 374 710 370 Q 716 364 718 355 Q 719 347 716 344 Q 714 342 709 343 Z M 590 356 L 587 357 L 587 363 L 592 371 Q 598 377 608 381 Q 614 382 615 378 Q 616 372 613 370 Q 606 358 590 356 Z M 752 376 L 738 382 L 732 389 L 733 395 L 737 397 L 747 397 L 758 392 Q 763 389 765 383 L 764 379 Q 761 374 752 376 Z M 567 396 L 565 398 Q 564 406 568 409 L 579 416 L 588 416 L 591 412 L 590 405 Q 584 395 567 396 Z " /><path fill="rgb(0,0,0)" stroke="rgb(0,0,0)" stroke-width="1" opacity="0" d="M 0.5 445 L 92 770.5 L 95.5 777 L 118.5 780 L 124.5 782 L 159.5 787 L 165.5 789 L 206.5 795 L 212.5 797 L 253.5 803 L 259.5 805 L 294.5 810 L 300.5 812 L 341.5 818 L 347.5 820 L 352.5 820 L 447 836.5 L 0 837 L 0.5 445 Z " /><path fill="rgb(0,0,0)" stroke="rgb(0,0,0)" stroke-width="1" opacity="0" d="M 1919.5 448 L 1920 837 L 451 836.5 L 477.5 834 L 478.5 833 L 486.5 833 L 487.5 832 L 495.5 832 L 496.5 831 L 504.5 831 L 505.5 830 L 513.5 830 L 514.5 829 L 522.5 829 L 523.5 828 L 531.5 828 L 532.5 827 L 540.5 827 L 541.5 826 L 549.5 826 L 550.5 825 L 558.5 825 L 559.5 824 L 567.5 824 L 568.5 823 L 576.5 823 L 577.5 822 L 585.5 822 L 586.5 821 L 594.5 821 L 595.5 820 L 603.5 820 L 604.5 819 L 612.5 819 L 613.5 818 L 621.5 818 L 622.5 817 L 630.5 817 L 631.5 816 L 639.5 816 L 640.5 815 L 648.5 815 L 649.5 814 L 657.5 814 L 658.5 813 L 666.5 813 L 667.5 812 L 675.5 812 L 676.5 811 L 684.5 811 L 685.5 810 L 693.5 810 L 694.5 809 L 702.5 809 L 703.5 808 L 711.5 808 L 712.5 807 L 720.5 807 L 721.5 806 L 729.5 806 L 730.5 805 L 738.5 805 L 739.5 804 L 747.5 804 L 748.5 803 L 756.5 803 L 757.5 802 L 765.5 802 L 766.5 801 L 774.5 801 L 775.5 800 L 783.5 800 L 784.5 799 L 792.5 799 L 793.5 798 L 801.5 798 L 802.5 797 L 811.5 797 L 812.5 798 L 826.5 798 L 827.5 799 L 871.5 801 L 872.5 802 L 885.5 802 L 886.5 803 L 900.5 803 L 901.5 804 L 915.5 804 L 916.5 805 L 930.5 805 L 931.5 806 L 990.5 809 L 991.5 810 L 1004.5 810 L 1005.5 811 L 1019.5 811 L 1020.5 812 L 1034.5 812 L 1035.5 813 L 1094.5 816 L 1095.5 817 L 1108.5 817 L 1109.5 818 L 1123.5 818 L 1124.5 819 L 1138.5 819 L 1139.5 820 L 1198.5 823 L 1199.5 824 L 1781 824 L 1793 788.5 L 1919.5 448 Z " /><path fill="rgb(71,61,128)" stroke="rgb(71,61,128)" stroke-width="1" opacity="1" d="M 1283.5 23 L 1298 23.5 L 1283.5 24 L 1283.5 23 Z " /><path fill="rgb(71,61,128)" stroke="rgb(71,61,128)" stroke-width="1" opacity="1" d="M 590.5 28 L 595 28.5 L 590.5 29 L 590.5 28 Z " /><path fill="rgb(71,61,128)" stroke="rgb(71,61,128)" stroke-width="1" opacity="1" d="M 807.5 28 L 811 28.5 L 807.5 29 L 807.5 28 Z " /><path fill="rgb(71,61,128)" stroke="rgb(71,61,128)" stroke-width="1" opacity="1" d="M 1027.5 28 L 1032 28.5 L 1027.5 29 L 1027.5 28 Z " /><path fill="rgb(71,61,128)" stroke="rgb(71,61,128)" stroke-width="1" opacity="1" d="M 1162.5 28 L 1163 65.5 L 1162 65.5 L 1162.5 28 Z " /><path fill="rgb(71,61,128)" stroke="rgb(71,61,128)" stroke-width="1" opacity="1" d="M 1327.5 35 L 1328.5 37 L 1327.5 35 Z " /><path fill="rgb(71,61,128)" stroke="rgb(71,61,128)" stroke-width="1" opacity="1" d="M 990.5 43 L 989.5 45 L 990.5 43 Z " /><path fill="rgb(71,61,128)" stroke="rgb(71,61,128)" stroke-width="1" opacity="1" d="M 766.5 46 L 765.5 48 L 766.5 46 Z " /><path fill="rgb(71,61,128)" stroke="rgb(71,61,128)" stroke-width="1" opacity="1" d="M 760.5 52 L 758.5 55 L 760.5 52 Z " /><path fill="rgb(71,61,128)" stroke="rgb(71,61,128)" stroke-width="1" opacity="1" d="M 755.5 58 L 754.5 60 L 755.5 58 Z " /><path fill="rgb(71,61,128)" stroke="rgb(71,61,128)" stroke-width="1" opacity="1" d="M 1287.5 58 L 1290 58.5 L 1287.5 59 L 1287.5 58 Z " /><path fill="rgb(71,61,128)" stroke="rgb(71,61,128)" stroke-width="1" opacity="1" d="M 1277.5 63 L 1275.5 66 L 1277.5 63 Z " /><path fill="rgb(71,61,128)" stroke="rgb(71,61,128)" stroke-width="1" opacity="1" d="M 593.5 66 L 596 66.5 L 593.5 67 L 593.5 66 Z " /><path fill="rgb(71,61,128)" stroke="rgb(71,61,128)" stroke-width="1" opacity="1" d="M 809.5 66 L 812 66.5 L 809.5 67 L 809.5 66 Z " /><path fill="rgb(71,61,128)" stroke="rgb(71,61,128)" stroke-width="1" opacity="1" d="M 1284.5 69 L 1283.5 71 L 1284.5 69 Z " /><path fill="rgb(71,61,128)" stroke="rgb(71,61,128)" stroke-width="1" opacity="1" d="M 793.5 73 L 792.5 75 L 793.5 73 Z " /><path fill="rgb(71,61,128)" stroke="rgb(71,61,128)" stroke-width="1" opacity="1" d="M 600.5 74 L 722 74.5 L 600.5 75 L 600.5 74 Z " /><path fill="rgb(71,61,128)" stroke="rgb(71,61,128)" stroke-width="1" opacity="1" d="M 816.5 74 L 945 74.5 L 816.5 75 L 816.5 74 Z " /><path fill="rgb(71,61,128)" stroke="rgb(71,61,128)" stroke-width="1" opacity="1" d="M 1036.5 74 L 1161.5 74 L 1163 75.5 L 1163 113 L 1054.5 113 L 1054.5 112 L 1162 112 L 1162 75 L 1036.5 75 L 1036.5 74 Z " /><path fill="rgb(71,61,128)" stroke="rgb(71,61,128)" stroke-width="1" opacity="1" d="M 1012.5 75 L 1008.5 80 L 1012.5 75 Z " /><path fill="rgb(71,61,128)" stroke="rgb(71,61,128)" stroke-width="1" opacity="1" d="M 786.5 80 L 785.5 82 L 786.5 80 Z " /><path fill="rgb(71,61,128)" stroke="rgb(71,61,128)" stroke-width="1" opacity="1" d="M 1018.5 80 L 1017.5 82 L 1018.5 80 Z " /><path fill="rgb(71,61,128)" stroke="rgb(71,61,128)" stroke-width="1" opacity="1" d="M 740.5 96 L 741 232.5 L 740 232.5 L 740.5 96 Z " /><path fill="rgb(71,61,128)" stroke="rgb(71,61,128)" stroke-width="1" opacity="1" d="M 778.5 98 L 779 101.5 L 778 101.5 L 778.5 98 Z " /><path fill="rgb(71,61,128)" stroke="rgb(71,61,128)" stroke-width="1" opacity="1" d="M 1007.5 99 L 1008 229.5 L 1007 229.5 L 1007.5 99 Z " /><path fill="rgb(71,61,128)" stroke="rgb(71,61,128)" stroke-width="1" opacity="1" d="M 999.5 101 L 1000 227.5 L 999 227.5 L 999.5 101 Z " /><path fill="rgb(71,61,128)" stroke="rgb(71,61,128)" stroke-width="1" opacity="1" d="M 960.5 102 L 961 226.5 L 960 226.5 L 960.5 102 Z " /><path fill="rgb(71,61,128)" stroke="rgb(71,61,128)" stroke-width="1" opacity="1" d="M 511.5 108 L 512 114.5 L 511 114.5 L 511.5 108 Z " /><path fill="rgb(71,61,128)" stroke="rgb(71,61,128)" stroke-width="1" opacity="1" d="M 550.5 110 L 551 112.5 L 550 112.5 L 550.5 110 Z " /><path fill="rgb(71,61,128)" stroke="rgb(71,61,128)" stroke-width="1" opacity="1" d="M 600.5 113 L 722 113.5 L 600.5 114 L 600.5 113 Z " /><path fill="rgb(71,61,128)" stroke="rgb(71,61,128)" stroke-width="1" opacity="1" d="M 832.5 113 L 945 113.5 L 832.5 114 L 832.5 113 Z " /><path fill="rgb(71,61,128)" stroke="rgb(71,61,128)" stroke-width="1" opacity="1" d="M 598.5 114 L 597.5 116 L 598.5 114 Z " /><path fill="rgb(71,61,128)" stroke="rgb(71,61,128)" stroke-width="1" opacity="1" d="M 1049.5 114 L 1048.5 116 L 1049.5 114 Z " /><path fill="rgb(71,61,128)" stroke="rgb(71,61,128)" stroke-width="1" opacity="1" d="M 511.5 120 L 512 126.5 L 511 126.5 L 511.5 120 Z " /><path fill="rgb(71,61,128)" stroke="rgb(71,61,128)" stroke-width="1" opacity="1" d="M 550.5 122 L 551 124.5 L 550 124.5 L 550.5 122 Z " /><path fill="rgb(71,61,128)" stroke="rgb(71,61,128)" stroke-width="1" opacity="1" d="M 601.5 122 L 641 122.5 L 601.5 123 L 601.5 122 Z " /><path fill="rgb(71,61,128)" stroke="rgb(71,61,128)" stroke-width="1" opacity="1" d="M 825.5 122 L 919 122.5 L 825.5 123 L 825.5 122 Z " /><path fill="rgb(71,61,128)" stroke="rgb(71,61,128)" stroke-width="1" opacity="1" d="M 1055.5 122 L 1162 122 L 1162 271.5 L 1162.5 273 L 1161 272.5 L 1161 123 L 1055.5 123 L 1055.5 122 Z " /><path fill="rgb(71,61,128)" stroke="rgb(71,61,128)" stroke-width="1" opacity="1" d="M 689.5 142 L 690.5 144 L 689.5 142 Z " /><path fill="rgb(71,61,128)" stroke="rgb(71,61,128)" stroke-width="1" opacity="1" d="M 567.5 144 L 568.5 146 L 567.5 144 Z " /><path fill="rgb(71,61,128)" stroke="rgb(71,61,128)" stroke-width="1" opacity="1" d="M 572.5 149 L 573.5 151 L 572.5 149 Z " /><path fill="rgb(71,61,128)" stroke="rgb(71,61,128)" stroke-width="1" opacity="1" d="M 700.5 153 L 701.5 155 L 700.5 153 Z " /><path fill="rgb(71,61,128)" stroke="rgb(71,61,128)" stroke-width="1" opacity="1" d="M 635.5 160 L 639 160.5 L 635.5 161 L 635.5 160 Z " /><path fill="rgb(71,61,128)" stroke="rgb(71,61,128)" stroke-width="1" opacity="1" d="M 594.5 168 L 597 168.5 L 594.5 169 L 594.5 168 Z " /><path fill="rgb(71,61,128)" stroke="rgb(71,61,128)" stroke-width="1" opacity="1" d="M 638.5 169 L 641 169.5 L 638.5 170 L 638.5 169 Z " /><path fill="rgb(71,61,128)" stroke="rgb(71,61,128)" stroke-width="1" opacity="1" d="M 531.5 174 L 532.5 176 L 531.5 174 Z " /><path fill="rgb(71,61,128)" stroke="rgb(71,61,128)" stroke-width="1" opacity="1" d="M 659.5 178 L 660.5 180 L 659.5 178 Z " /><path fill="rgb(71,61,128)" stroke="rgb(71,61,128)" stroke-width="1" opacity="1" d="M 664.5 183 L 665.5 185 L 664.5 183 Z " /><path fill="rgb(71,61,128)" stroke="rgb(71,61,128)" stroke-width="1" opacity="1" d="M 542.5 185 L 543.5 187 L 542.5 185 Z " /><path fill="rgb(71,61,128)" stroke="rgb(71,61,128)" stroke-width="1" opacity="1" d="M 721.5 201 L 722 205.5 L 721 205.5 L 721.5 201 Z " /><path fill="rgb(71,61,128)" stroke="rgb(71,61,128)" stroke-width="1" opacity="1" d="M 682.5 203 L 683 205.5 L 682 205.5 L 682.5 203 Z " /><path fill="rgb(71,61,128)" stroke="rgb(71,61,128)" stroke-width="1" opacity="1" d="M 591.5 206 L 598 206.5 L 591.5 207 L 591.5 206 Z " /><path fill="rgb(71,61,128)" stroke="rgb(71,61,128)" stroke-width="1" opacity="1" d="M 825.5 207 L 919 207.5 L 825.5 208 L 825.5 207 Z " /><path fill="rgb(71,61,128)" stroke="rgb(71,61,128)" stroke-width="1" opacity="1" d="M 1077.5 207 L 1078 214.5 L 1076.5 216 L 1053.5 216 L 1053.5 215 L 1076.5 215 L 1077 214.5 L 1077.5 207 Z " /><path fill="rgb(71,61,128)" stroke="rgb(71,61,128)" stroke-width="1" opacity="1" d="M 675.5 210 L 676 213.5 L 675 213.5 L 675.5 210 Z " /><path fill="rgb(71,61,128)" stroke="rgb(71,61,128)" stroke-width="1" opacity="1" d="M 1047.5 211 L 1049.5 214 L 1047.5 211 Z " /><path fill="rgb(71,61,128)" stroke="rgb(71,61,128)" stroke-width="1" opacity="1" d="M 1277.5 211 L 1303 211.5 L 1277.5 212 L 1277.5 211 Z " /><path fill="rgb(71,61,128)" stroke="rgb(71,61,128)" stroke-width="1" opacity="1" d="M 511.5 216 L 633 216.5 L 511.5 217 L 511.5 216 Z " /><path fill="rgb(71,61,128)" stroke="rgb(71,61,128)" stroke-width="1" opacity="1" d="M 833.5 217 L 946 217.5 L 833.5 218 L 833.5 217 Z " /><path fill="rgb(71,61,128)" stroke="rgb(71,61,128)" stroke-width="1" opacity="1" d="M 721.5 218 L 722 221.5 L 721 221.5 L 721.5 218 Z " /><path fill="rgb(71,61,128)" stroke="rgb(71,61,128)" stroke-width="1" opacity="1" d="M 1274.5 222 L 1275 254 L 1362.5 254 L 1363.5 253 L 1362.5 255 L 1275.5 255 L 1274 253.5 L 1274.5 222 Z " /><path fill="rgb(71,61,128)" stroke="rgb(71,61,128)" stroke-width="1" opacity="1" d="M 778.5 227 L 779 230.5 L 778 230.5 L 778.5 227 Z " /><path fill="rgb(71,61,128)" stroke="rgb(71,61,128)" stroke-width="1" opacity="1" d="M 1012.5 242 L 1013.5 244 L 1012.5 242 Z " /><path fill="rgb(71,61,128)" stroke="rgb(71,61,128)" stroke-width="1" opacity="1" d="M 1008.5 249 L 1009.5 251 L 1008.5 249 Z " /><path fill="rgb(71,61,128)" stroke="rgb(71,61,128)" stroke-width="1" opacity="1" d="M 1012.5 253 L 1013.5 255 L 1012.5 253 Z " /><path fill="rgb(71,61,128)" stroke="rgb(71,61,128)" stroke-width="1" opacity="1" d="M 511.5 254 L 635 254.5 L 511.5 255 L 511.5 254 Z " /><path fill="rgb(71,61,128)" stroke="rgb(71,61,128)" stroke-width="1" opacity="1" d="M 1034.5 254 L 1115 254.5 L 1034.5 255 L 1034.5 254 Z " /><path fill="rgb(71,61,128)" stroke="rgb(71,61,128)" stroke-width="1" opacity="1" d="M 814.5 255 L 946 255.5 L 814.5 256 L 814.5 255 Z " /><path fill="rgb(71,61,128)" stroke="rgb(71,61,128)" stroke-width="1" opacity="1" d="M 1275.5 263 L 1276 300.5 L 1275 300.5 L 1275.5 263 Z " /><path fill="rgb(71,61,128)" stroke="rgb(71,61,128)" stroke-width="1" opacity="1" d="M 758.5 274 L 759.5 276 L 758.5 274 Z " /><path fill="rgb(71,61,128)" stroke="rgb(71,61,128)" stroke-width="1" opacity="1" d="M 981.5 277 L 984.5 281 L 981.5 277 Z " /><path fill="rgb(71,61,128)" stroke="rgb(71,61,128)" stroke-width="1" opacity="1" d="M 765.5 281 L 767.5 284 L 765.5 281 Z " /><path fill="rgb(71,61,128)" stroke="rgb(71,61,128)" stroke-width="1" opacity="1" d="M 639.5 300 L 644 300.5 L 639.5 301 L 639.5 300 Z " /><path fill="rgb(71,61,128)" stroke="rgb(71,61,128)" stroke-width="1" opacity="1" d="M 806.5 300 L 810 300.5 L 806.5 301 L 806.5 300 Z " /><path fill="rgb(71,61,128)" stroke="rgb(71,61,128)" stroke-width="1" opacity="1" d="M 1026.5 300 L 1031 300.5 L 1026.5 301 L 1026.5 300 Z " /><path fill="rgb(71,61,128)" stroke="rgb(71,61,128)" stroke-width="1" opacity="1" d="M 1515.5 368 L 1907 452 L 1774 814 L 1196.5 814 L 1195.5 813 L 1181.5 813 L 1180.5 812 L 1167.5 812 L 1166.5 811 L 1152.5 811 L 1151.5 810 L 1137.5 810 L 1136.5 809 L 1122.5 809 L 1121.5 808 L 1107.5 808 L 1106.5 807 L 1092.5 807 L 1091.5 806 L 1077.5 806 L 1076.5 805 L 1063.5 805 L 1062.5 804 L 1048.5 804 L 1047.5 803 L 1033.5 803 L 1032.5 802 L 1018.5 802 L 1017.5 801 L 1003.5 801 L 1002.5 800 L 988.5 800 L 987.5 799 L 973.5 799 L 972.5 798 L 959.5 798 L 958.5 797 L 944.5 797 L 943.5 796 L 929.5 796 L 928.5 795 L 914.5 795 L 913.5 794 L 899.5 794 L 898.5 793 L 884.5 793 L 883.5 792 L 869.5 792 L 868.5 791 L 855.5 791 L 854.5 790 L 840.5 790 L 839.5 789 L 825.5 789 L 824.5 788 L 803.5 787 L 802.5 788 L 794.5 788 L 793.5 789 L 785.5 789 L 784.5 790 L 776.5 790 L 775.5 791 L 767.5 791 L 766.5 792 L 758.5 792 L 757.5 793 L 749.5 793 L 748.5 794 L 740.5 794 L 739.5 795 L 731.5 795 L 730.5 796 L 722.5 796 L 721.5 797 L 713.5 797 L 712.5 798 L 704.5 798 L 703.5 799 L 695.5 799 L 694.5 800 L 686.5 800 L 685.5 801 L 677.5 801 L 676.5 802 L 668.5 802 L 667.5 803 L 659.5 803 L 658.5 804 L 650.5 804 L 649.5 805 L 641.5 805 L 640.5 806 L 632.5 806 L 631.5 807 L 623.5 807 L 622.5 808 L 614.5 808 L 613.5 809 L 605.5 809 L 604.5 810 L 596.5 810 L 595.5 811 L 587.5 811 L 586.5 812 L 578.5 812 L 577.5 813 L 569.5 813 L 568.5 814 L 560.5 814 L 559.5 815 L 551.5 815 L 550.5 816 L 542.5 816 L 541.5 817 L 533.5 817 L 532.5 818 L 524.5 818 L 523.5 819 L 515.5 819 L 514.5 820 L 506.5 820 L 505.5 821 L 497.5 821 L 496.5 822 L 488.5 822 L 487.5 823 L 479.5 823 L 478.5 824 L 447.5 827 L 441.5 825 L 400.5 819 L 394.5 817 L 359.5 812 L 353.5 810 L 312.5 804 L 306.5 802 L 265.5 796 L 259.5 794 L 254.5 794 L 102 768 L 12 450.5 L 20.5 447 L 119.5 422 L 123.5 420 L 222.5 395 L 226.5 393 L 238.5 390 L 252.5 390 L 253.5 391 L 266.5 391 L 267.5 392 L 280.5 392 L 281.5 393 L 294.5 393 L 295.5 394 L 308.5 394 L 309.5 395 L 322.5 395 L 323.5 396 L 336.5 396 L 337.5 397 L 392.5 400 L 393.5 401 L 399.5 401 L 406.5 403 L 412.5 403 L 419.5 405 L 458.5 410 L 465.5 412 L 471.5 412 L 478.5 414 L 484.5 414 L 491.5 416 L 497.5 416 L 504.5 418 L 510.5 418 L 517.5 420 L 543.5 423 L 550.5 425 L 556.5 425 L 557.5 426 L 599 432 Q 600.2 447.6 610.5 455 L 636.5 470 L 641 474.5 L 643 486.5 Q 645.9 494.6 652.5 499 L 665 504.5 L 651.5 511 L 645 517.5 Q 643.6 527.9 650.5 530 L 663.5 534 L 678.5 534 L 681.5 535 L 682.5 534 L 690.5 534 L 695 532 L 696 529.5 L 692.5 525 L 680 521 L 681.5 518 Q 693.5 517 699 509.5 Q 699.6 504.4 696.5 503 L 683 498 Q 681.3 493.9 685.5 495 L 690.5 494 L 695 490.5 Q 697.4 473.4 709.5 466 L 727 451.5 L 730 445 L 1162.5 451 L 1515.5 368 Z M 1440 418 L 1435 420 L 1432 429 L 1434 439 L 1437 446 L 1449 463 Q 1457 472 1471 477 Q 1480 479 1483 474 L 1482 465 L 1476 452 L 1460 430 L 1449 420 Q 1446 417 1440 418 Z M 1620 418 L 1604 426 Q 1584 441 1575 467 L 1576 475 L 1583 479 L 1593 477 L 1608 467 L 1623 450 L 1631 433 L 1630 424 Q 1628 418 1620 418 Z M 266 453 L 265 454 L 245 455 L 222 460 Q 208 464 199 471 Q 189 478 184 489 L 181 502 L 181 511 L 182 512 L 177 511 L 160 512 L 150 516 L 146 521 L 146 532 L 149 542 L 166 573 L 171 586 L 173 595 L 173 605 L 174 606 L 176 624 L 183 649 Q 190 669 202 685 L 227 709 L 237 716 L 251 722 L 267 725 L 291 724 Q 303 721 312 714 L 320 701 L 322 692 L 322 681 L 320 673 L 305 644 L 304 638 L 308 635 L 337 635 L 338 634 L 358 633 L 393 626 Q 421 618 441 602 Q 459 587 465 559 L 465 540 L 461 526 L 452 511 L 437 495 Q 423 480 404 472 L 369 461 L 348 457 L 333 456 L 332 455 L 322 455 L 321 454 L 266 453 Z M 1748 470 Q 1716 478 1695 496 Q 1689 500 1687 508 L 1689 514 L 1696 517 L 1703 517 L 1716 513 Q 1731 506 1744 495 L 1755 483 Q 1758 479 1757 472 L 1756 470 L 1748 470 Z M 1310 496 L 1308 497 L 1303 503 Q 1303 511 1308 515 Q 1329 537 1364 546 L 1372 544 L 1374 540 L 1373 531 L 1367 522 Q 1355 509 1338 501 L 1322 496 L 1310 496 Z M 1521 497 L 1520 498 L 1501 499 L 1479 503 L 1452 511 Q 1418 523 1396 545 Q 1374 563 1368 597 L 1368 617 L 1370 626 Q 1376 641 1386 652 L 1412 675 Q 1425 685 1443 692 L 1467 700 L 1490 705 L 1510 707 L 1511 708 L 1520 708 L 1521 709 L 1535 709 L 1536 710 L 1579 710 L 1580 709 L 1591 709 L 1592 708 L 1612 706 L 1629 702 Q 1650 696 1668 686 L 1690 670 Q 1708 655 1715 628 L 1715 571 L 1714 567 L 1706 552 L 1691 536 Q 1681 525 1667 518 Q 1649 510 1629 505 L 1608 501 L 1594 500 L 1593 499 L 1583 499 L 1582 498 L 1568 498 L 1567 497 L 1521 497 Z M 1077 521 L 1076 522 L 1065 522 L 1064 523 L 1050 524 L 1029 528 L 1000 536 L 978 544 Q 927 565 889 598 Q 882 602 879 610 L 879 651 Q 881 665 889 674 L 914 698 L 937 713 L 974 728 L 1009 735 L 1105 735 L 1106 734 L 1123 733 Q 1175 723 1210 695 Q 1218 689 1223 679 Q 1225 668 1220 664 Q 1217 659 1211 657 L 1209 653 L 1199 644 L 1186 640 L 1178 640 L 1177 639 L 1153 641 L 1135 645 L 1071 670 L 1058 673 L 1039 674 L 1038 675 L 1020 674 L 1004 669 L 1000 665 L 998 657 Q 996 639 1003 632 L 1020 617 L 1031 611 L 1051 603 L 1081 594 L 1115 586 L 1150 581 L 1167 575 L 1172 568 L 1171 559 L 1163 551 L 1159 546 L 1146 535 L 1120 524 L 1106 521 L 1077 521 Z M 668 537 L 662 542 L 663 550 L 669 553 Q 674 554 677 551 L 679 548 L 678 541 Q 676 536 668 537 Z M 659 572 L 637 577 L 627 582 L 617 589 L 607 605 L 603 618 L 603 638 L 604 639 L 604 652 L 605 653 L 605 659 L 601 676 L 600 692 L 599 693 L 601 714 L 607 728 L 617 736 L 620 741 Q 627 750 640 754 L 662 759 L 676 759 L 691 756 Q 701 752 709 746 Q 722 735 727 715 L 727 697 L 725 689 L 725 669 L 727 662 L 728 649 L 729 648 L 729 638 L 730 637 L 729 614 Q 727 603 721 597 L 717 593 L 711 587 Q 704 577 692 574 L 682 572 L 659 572 Z M 1740 588 L 1728 591 L 1719 598 Q 1718 603 1720 605 Q 1727 610 1738 613 L 1754 616 L 1764 616 L 1765 617 L 1785 616 L 1797 612 Q 1803 611 1801 602 Q 1797 595 1789 593 L 1778 590 L 1767 589 L 1766 588 L 1740 588 Z M 1323 614 L 1300 618 L 1287 624 Q 1283 626 1283 631 L 1288 635 L 1307 639 L 1334 639 L 1335 638 L 1343 638 L 1359 634 L 1363 631 L 1362 624 L 1353 617 L 1345 615 L 1323 614 Z M 1695 673 L 1688 675 L 1685 679 L 1685 683 L 1688 689 Q 1707 711 1739 721 Q 1750 723 1753 718 L 1753 711 L 1748 703 Q 1736 690 1720 681 L 1702 674 L 1695 673 Z M 1410 684 Q 1386 691 1370 705 L 1356 719 L 1353 725 L 1354 732 L 1364 736 L 1372 735 L 1381 732 L 1399 721 L 1415 704 Q 1419 699 1418 689 Q 1416 684 1410 684 Z M 1604 711 L 1600 712 L 1594 720 L 1594 734 L 1599 751 L 1612 773 Q 1616 778 1624 780 L 1631 778 L 1635 771 L 1635 756 L 1633 747 Q 1628 731 1619 720 L 1612 713 L 1604 711 Z M 1506 715 L 1499 719 Q 1481 736 1474 764 Q 1472 776 1479 780 Q 1485 781 1488 778 Q 1507 761 1515 732 L 1515 721 L 1514 719 Q 1513 714 1506 715 Z " /><path fill="rgb(71,61,128)" stroke="rgb(71,61,128)" stroke-width="1" opacity="1" d="M 295.5 509 L 309.5 509 L 324.5 513 L 341.5 521 L 350 528.5 L 351 534.5 L 339.5 548 L 330.5 554 L 316.5 560 L 294.5 565 L 276.5 566 L 271 561.5 L 259 531.5 L 258 525.5 L 261.5 521 L 280.5 513 L 295.5 509 Z " /><path fill="rgb(71,61,128)" stroke="rgb(71,61,128)" stroke-width="1" opacity="1" d="M 1545.5 543 L 1565.5 544 L 1569 545.5 Q 1559.4 550.4 1560 565.5 L 1564.5 572 Q 1574.8 579.7 1594.5 578 L 1599 576 L 1600 572.5 L 1594.5 565 L 1590.5 565 L 1584.5 568 L 1581.5 568 Q 1579 567 1580 562.5 L 1583.5 559 L 1591.5 556 L 1607.5 554 Q 1624.1 560.9 1636.5 572 L 1650 577 Q 1651.6 579.1 1651 584.5 L 1644 595.5 L 1634 619.5 L 1624.5 630 Q 1608.4 643.9 1583.5 649 L 1569.5 650 L 1568.5 651 L 1523.5 651 L 1522.5 650 L 1506.5 649 L 1483.5 643 Q 1462.7 634.8 1450 618.5 L 1443 607.5 L 1442 599.5 L 1443 594.5 L 1448 584.5 Q 1455.8 570.8 1467.5 561 Q 1482.8 548.8 1507.5 546 L 1507 547.5 Q 1503.5 552 1503 559.5 Q 1505.1 567.4 1511.5 571 Q 1519.5 576 1534.5 574 Q 1542.3 572.3 1547 567.5 L 1548 561.5 L 1543.5 557 L 1538.5 557 L 1524.5 564 L 1522 563 L 1521 558.5 L 1525.5 553 L 1545.5 543 Z M 1488 598 L 1486 599 L 1482 604 L 1483 611 L 1486 613 L 1506 622 L 1534 629 L 1587 629 L 1588 628 L 1602 627 L 1607 625 L 1610 621 L 1609 615 L 1603 610 L 1587 613 L 1534 613 L 1511 607 L 1493 598 L 1488 598 Z " /><path fill="rgb(251,252,253)" stroke="rgb(251,252,253)" stroke-width="1" opacity="0.984313725490196" d="M 1288.5 0 L 1305.5 1 L 1325.5 7 Q 1343.9 15.1 1356 29.5 Q 1366.2 41.3 1372 57.5 L 1457 314.5 L 1460 320.5 L 1460 324 L 1030.5 324 L 1029.5 323 L 1016.5 322 L 1000.5 317 Q 982.7 309.8 970.5 297 L 970 324 L 809.5 324 Q 807.7 321.3 801.5 323 Q 765.5 316 745 293.5 L 728.5 271 L 708.5 295 Q 694.5 308 675.5 316 L 649.5 323 L 641.5 323 L 640.5 324 L 488 324 L 488 193.5 L 488.5 193 L 516.5 193 L 516 191.5 Q 502.7 176.8 495 156.5 L 489 132.5 L 488 112.5 L 489 111.5 L 489 101.5 L 491 91.5 L 496 75.5 Q 507.1 49.1 527.5 32 Q 540.9 20.4 558.5 13 L 584.5 6 L 592.5 6 L 593.5 5 L 745 5 L 745.5 35 Q 765.2 12.7 800.5 6 L 808.5 6 L 809.5 5 L 968 5 L 968.5 32 Q 988 12 1021.5 6 L 1029.5 6 L 1030.5 5 L 1185 5 L 1185.5 136 L 1214 51.5 Q 1222.7 31.7 1238.5 19 L 1260.5 6 L 1273.5 2 L 1287.5 1 L 1288.5 0 Z M 1284 23 L 1266 28 L 1253 36 Q 1239 46 1233 64 L 1230 76 L 1228 79 L 1163 272 L 1162 272 L 1162 122 L 1055 122 L 1055 160 L 1125 160 L 1125 263 L 1033 263 Q 1019 261 1012 253 Q 1003 245 1000 233 L 1000 97 L 1006 83 Q 1015 69 1034 66 L 1163 66 L 1163 66 L 1163 28 L 1028 28 L 1018 30 L 1004 35 L 991 43 Q 978 53 970 67 L 963 84 L 961 93 L 961 102 L 960 103 L 960 227 L 961 228 L 961 237 Q 966 262 981 278 Q 997 296 1027 301 L 1193 301 L 1265 91 L 1274 68 L 1283 60 L 1291 58 Q 1300 58 1305 62 L 1312 72 L 1376 262 L 1376 263 L 1275 263 L 1275 301 L 1429 301 L 1349 64 L 1340 48 Q 1331 35 1316 28 L 1298 23 L 1284 23 Z M 591 28 L 576 31 L 565 35 L 544 48 Q 531 59 522 74 L 515 90 L 511 109 L 511 127 L 514 142 Q 519 161 531 175 Q 548 197 580 205 L 591 206 L 592 207 L 634 207 L 636 210 L 635 215 L 635 216 L 512 216 L 511 217 L 511 255 L 635 255 L 651 251 L 659 246 L 671 232 L 675 221 Q 674 215 676 214 Q 675 195 666 185 Q 658 174 645 170 L 641 169 L 598 169 Q 596 167 591 168 Q 577 165 569 157 L 557 144 L 551 129 Q 553 123 550 122 L 550 114 L 552 103 Q 556 92 562 85 Q 574 70 597 66 L 722 66 L 722 29 L 722 28 L 591 28 Z M 808 28 L 786 34 L 767 46 Q 756 55 749 68 L 742 86 L 740 97 L 740 233 L 746 256 L 758 275 Q 775 295 807 301 L 946 301 L 946 301 L 946 263 L 812 263 L 801 260 L 793 255 L 784 246 L 780 238 L 778 227 L 778 103 L 780 92 L 787 80 Q 796 69 813 66 L 946 66 L 946 29 L 946 28 L 808 28 Z M 1289 67 L 1285 69 L 1279 77 L 1202 301 L 1247 301 L 1252 289 L 1274 223 L 1274 254 L 1276 255 L 1363 255 L 1364 254 L 1360 245 L 1303 74 L 1296 67 L 1289 67 Z M 601 74 L 586 77 L 574 84 Q 562 93 558 110 Q 556 122 559 130 L 567 145 Q 575 155 589 159 L 593 160 L 635 160 Q 636 163 642 161 Q 656 164 665 172 Q 679 184 683 207 L 683 218 L 681 227 L 672 244 Q 660 259 638 263 L 512 263 L 511 264 L 511 301 L 644 301 L 667 295 L 689 282 Q 701 272 710 258 L 719 237 L 722 222 L 722 202 L 719 187 Q 713 168 702 155 Q 686 133 657 125 L 641 122 L 600 122 Q 596 121 597 117 L 600 114 L 722 114 L 722 75 L 722 74 L 601 74 Z M 817 74 Q 815 77 809 75 L 800 79 Q 790 85 787 98 L 787 160 L 919 160 L 919 122 L 825 122 L 827 117 L 831 114 L 945 114 L 945 75 L 945 74 L 817 74 Z M 1037 74 L 1024 77 L 1019 80 Q 1010 87 1007 100 L 1007 230 L 1012 243 L 1022 251 L 1035 255 L 1115 255 L 1115 169 L 1055 169 L 1055 207 L 1077 207 L 1077 215 L 1077 215 L 1052 215 L 1046 208 L 1046 121 L 1047 118 L 1053 113 L 1163 113 L 1163 76 L 1162 74 L 1037 74 Z M 787 170 L 787 233 L 791 243 L 800 251 L 809 255 Q 813 254 815 256 L 946 256 L 946 256 L 946 217 L 832 217 L 830 216 L 825 211 L 826 208 L 919 208 L 919 171 L 919 170 L 787 170 Z " /><path fill="rgb(251,252,253)" stroke="rgb(251,252,253)" stroke-width="1" opacity="0.984313725490196" d="M 1290.5 174 L 1292 175.5 L 1303 211 L 1278.5 211 L 1278 209.5 L 1290.5 174 Z " /><path fill="rgb(251,252,253)" stroke="rgb(251,252,253)" stroke-width="1" opacity="0.984313725490196" d="M 651.5 400 L 675.5 400 Q 676.7 402.2 681.5 401 Q 693.9 404.1 701 412.5 Q 708.2 419.3 706 435.5 L 698.5 445 L 688 454.5 L 677.5 473 Q 668.1 474.9 665 470.5 L 662 463.5 L 657 457 L 645.5 448 L 631.5 440 L 626 434.5 Q 621.7 430.3 623 420.5 Q 624.9 411.4 631.5 407 L 636.5 404 L 651.5 400 Z " /><path fill="rgb(224,182,33)" stroke="rgb(224,182,33)" stroke-width="1" opacity="0.996078431372549" d="M 646.5 339 Q 653.8 337.8 655 342.5 L 658 350.5 L 658 358.5 L 653.5 366 L 647.5 367 L 643 363.5 Q 639.4 358.1 641 347.5 Q 642.3 341.8 646.5 339 Z " /><path fill="rgb(224,182,33)" stroke="rgb(224,182,33)" stroke-width="1" opacity="0.996078431372549" d="M 708.5 343 Q 713.9 342.4 716 344 Q 718.9 346.9 718 354.5 Q 715.7 364.2 709.5 370 Q 706.7 373.7 699.5 373 L 695 371 Q 692.9 367.7 694 359.5 Q 697.2 350.2 704.5 345 L 708.5 343 Z " /><path fill="rgb(224,182,33)" stroke="rgb(224,182,33)" stroke-width="1" opacity="0.996078431372549" d="M 589.5 356 Q 605.7 358.3 613 369.5 Q 615.7 371.8 615 377.5 Q 614 382 607.5 381 Q 598 377.5 592 370.5 L 587 362.5 L 587 357 L 589.5 356 Z " /><path fill="rgb(224,182,33)" stroke="rgb(224,182,33)" stroke-width="1" opacity="0.996078431372549" d="M 652.5 376 L 679.5 376 L 689.5 378 Q 710.8 383.8 723 398.5 Q 730.4 407.1 734 419.5 L 734 435.5 Q 730.5 451 719.5 459 Q 708.2 465.7 700 475.5 L 696 484.5 L 696 488.5 L 692.5 493 L 683 495 Q 681.3 499.1 685.5 498 Q 693.3 499.7 698 504.5 L 699 509.5 L 694.5 514 L 680 519.5 Q 679.3 521.8 681.5 521 Q 690.1 522.4 695 527.5 L 696 529.5 L 695 532 L 690.5 534 L 679.5 535 L 678.5 534 L 663.5 534 L 658.5 533 Q 650 531.5 646 525.5 L 645 517.5 L 651.5 511 L 665 504.5 L 652.5 499 L 646 492.5 Q 641.6 486.9 642 476.5 L 636.5 470 Q 618.6 462.9 606 450.5 Q 598.1 442.9 599 426.5 Q 602.9 403.4 617.5 391 L 633.5 381 L 652.5 376 Z M 652 400 L 637 404 L 632 407 Q 625 411 623 421 Q 622 430 626 435 L 632 440 L 646 448 L 657 457 L 662 464 L 665 471 Q 668 475 678 473 L 688 455 L 699 445 L 706 436 Q 708 419 701 413 Q 694 404 682 401 Q 677 402 676 400 L 652 400 Z " /><path fill="rgb(224,182,33)" stroke="rgb(224,182,33)" stroke-width="1" opacity="0.996078431372549" d="M 751.5 376 Q 760.9 374.1 764 378.5 L 765 382.5 Q 763.4 389.4 757.5 392 L 746.5 397 L 736.5 397 L 733 394.5 L 732 388.5 L 737.5 382 L 751.5 376 Z " /><path fill="rgb(224,182,33)" stroke="rgb(224,182,33)" stroke-width="1" opacity="0.996078431372549" d="M 566.5 396 Q 583.8 394.7 590 404.5 L 591 411.5 L 587.5 416 L 578.5 416 L 568 408.5 Q 563.9 405.6 565 397.5 L 566.5 396 Z " /><path fill="rgb(224,182,33)" stroke="rgb(224,182,33)" stroke-width="1" opacity="0.996078431372549" d="M 1439.5 418 Q 1445.6 417.4 1448.5 420 L 1460 429.5 L 1476 451.5 L 1482 464.5 L 1483 473.5 Q 1480.3 478.8 1470.5 477 Q 1457.3 472.3 1449 462.5 L 1437 445.5 L 1434 438.5 L 1432 428.5 L 1435 420 L 1439.5 418 Z " /><path fill="rgb(224,182,33)" stroke="rgb(224,182,33)" stroke-width="1" opacity="0.996078431372549" d="M 1619.5 418 Q 1627.6 417.9 1630 423.5 L 1631 432.5 L 1623 449.5 L 1607.5 467 L 1592.5 477 L 1582.5 479 L 1576 474.5 L 1575 466.5 Q 1584 441 1603.5 426 L 1619.5 418 Z " /><path fill="rgb(224,182,33)" stroke="rgb(224,182,33)" stroke-width="1" opacity="0.996078431372549" d="M 265.5 453 L 320.5 454 L 321.5 455 L 331.5 455 L 332.5 456 L 347.5 457 L 368.5 461 L 403.5 472 Q 423.2 480.3 437 494.5 L 452 510.5 L 461 525.5 L 465 539.5 L 465 558.5 Q 459.5 587 440.5 602 Q 420.8 618.3 392.5 626 L 357.5 633 L 337.5 634 L 336.5 635 L 307.5 635 L 304 637.5 L 305 643.5 L 320 672.5 L 322 680.5 L 322 691.5 L 320 700.5 L 311.5 714 Q 303.5 721.5 290.5 724 L 266.5 725 L 250.5 722 L 236.5 716 L 226.5 709 L 202 684.5 Q 190.1 668.9 183 648.5 L 176 623.5 L 174 605.5 L 173 604.5 L 173 594.5 L 171 585.5 L 166 572.5 L 149 541.5 L 146 531.5 L 146 520.5 L 149.5 516 L 159.5 512 L 176.5 511 L 181.5 512 L 181 510.5 L 181 501.5 L 184 488.5 Q 189.1 477.6 198.5 471 Q 208.3 463.8 221.5 460 L 244.5 455 L 264.5 454 L 265.5 453 Z M 296 509 L 281 513 L 262 521 L 258 526 L 259 532 L 271 562 L 277 566 L 295 565 L 317 560 L 331 554 L 340 548 L 351 535 L 350 529 L 342 521 L 325 513 L 310 509 L 296 509 Z " /><path fill="rgb(224,182,33)" stroke="rgb(224,182,33)" stroke-width="1" opacity="0.996078431372549" d="M 1747.5 470 L 1755.5 470 L 1757 471.5 Q 1758.2 479.2 1755 482.5 L 1743.5 495 Q 1731.2 505.7 1715.5 513 L 1702.5 517 L 1695.5 517 L 1689 513.5 L 1687 507.5 Q 1689.1 500.1 1694.5 496 Q 1716.4 478.4 1747.5 470 Z " /><path fill="rgb(224,182,33)" stroke="rgb(224,182,33)" stroke-width="1" opacity="0.996078431372549" d="M 1309.5 496 L 1321.5 496 L 1337.5 501 Q 1355 508.5 1367 521.5 L 1373 530.5 L 1374 539.5 L 1371.5 544 L 1363.5 546 Q 1328.6 537.4 1308 514.5 Q 1303.3 510.7 1303 502.5 L 1307.5 497 L 1309.5 496 Z " /><path fill="rgb(224,182,33)" stroke="rgb(224,182,33)" stroke-width="1" opacity="0.996078431372549" d="M 1520.5 497 L 1566.5 497 L 1567.5 498 L 1581.5 498 L 1582.5 499 L 1592.5 499 L 1593.5 500 L 1607.5 501 L 1628.5 505 Q 1649.3 509.7 1666.5 518 Q 1680.6 524.9 1691 535.5 L 1706 551.5 L 1714 566.5 L 1715 570.5 L 1715 627.5 Q 1708.1 654.6 1689.5 670 L 1667.5 686 Q 1650.1 696.1 1628.5 702 L 1611.5 706 L 1591.5 708 L 1590.5 709 L 1579.5 709 L 1578.5 710 L 1535.5 710 L 1534.5 709 L 1520.5 709 L 1519.5 708 L 1510.5 708 L 1509.5 707 L 1489.5 705 L 1466.5 700 L 1442.5 692 Q 1425.4 685.1 1411.5 675 L 1386 651.5 Q 1375.5 641 1370 625.5 L 1368 616.5 L 1368 596.5 Q 1374.5 563.5 1395.5 545 Q 1418.4 522.9 1451.5 511 L 1478.5 503 L 1500.5 499 L 1519.5 498 L 1520.5 497 Z M 1546 543 L 1526 553 L 1521 559 L 1522 563 L 1525 564 L 1539 557 L 1544 557 L 1548 562 L 1547 568 Q 1542 572 1535 574 Q 1519 576 1512 571 Q 1505 567 1503 560 Q 1503 552 1507 548 L 1508 546 Q 1483 549 1468 561 Q 1456 571 1448 585 L 1443 595 L 1442 600 L 1443 608 L 1450 619 Q 1463 635 1484 643 L 1507 649 L 1523 650 L 1524 651 L 1569 651 L 1570 650 L 1584 649 Q 1608 644 1625 630 L 1634 620 L 1644 596 L 1651 585 Q 1652 579 1650 577 L 1637 572 Q 1624 561 1608 554 L 1592 556 L 1584 559 L 1580 563 Q 1579 567 1582 568 L 1585 568 L 1591 565 L 1595 565 L 1600 573 L 1599 576 L 1595 578 Q 1575 580 1565 572 L 1560 566 Q 1559 550 1569 546 L 1566 544 L 1546 543 Z " /><path fill="rgb(224,182,33)" stroke="rgb(224,182,33)" stroke-width="1" opacity="0.996078431372549" d="M 1076.5 521 L 1105.5 521 L 1119.5 524 L 1145.5 535 L 1159 545.5 L 1162.5 551 L 1171 558.5 L 1172 567.5 L 1166.5 575 L 1149.5 581 L 1114.5 586 L 1080.5 594 L 1050.5 603 L 1030.5 611 L 1019.5 617 L 1003 631.5 Q 995.8 639.3 998 656.5 L 1000 664.5 L 1003.5 669 L 1019.5 674 L 1037.5 675 L 1038.5 674 L 1057.5 673 L 1070.5 670 L 1134.5 645 L 1152.5 641 L 1176.5 639 L 1177.5 640 L 1185.5 640 L 1198.5 644 L 1209 652.5 L 1211 657 Q 1216.6 658.5 1220 663.5 Q 1224.5 668 1223 678.5 Q 1218.3 688.8 1209.5 695 Q 1175.1 723.1 1122.5 733 L 1105.5 734 L 1104.5 735 L 1008.5 735 L 973.5 728 L 936.5 713 L 913.5 698 L 889 673.5 Q 881.5 664.5 879 650.5 L 879 609.5 Q 882 602 888.5 598 Q 926.8 564.8 977.5 544 L 999.5 536 L 1028.5 528 L 1049.5 524 L 1063.5 523 L 1064.5 522 L 1075.5 522 L 1076.5 521 Z " /><path fill="rgb(224,182,33)" stroke="rgb(224,182,33)" stroke-width="1" opacity="0.996078431372549" d="M 667.5 537 Q 675.8 535.7 678 540.5 L 679 547.5 L 676.5 551 Q 674.2 553.7 668.5 553 L 663 549.5 L 662 541.5 L 667.5 537 Z " /><path fill="rgb(224,182,33)" stroke="rgb(224,182,33)" stroke-width="1" opacity="0.996078431372549" d="M 658.5 572 L 681.5 572 L 691.5 574 Q 704.1 577.4 711 586.5 L 716.5 593 L 721 596.5 Q 726.9 603.1 729 613.5 L 730 636.5 L 729 637.5 L 729 647.5 L 728 648.5 L 727 661.5 L 725 668.5 L 725 688.5 L 727 696.5 L 727 714.5 Q 722.1 734.6 708.5 746 Q 701 752.5 690.5 756 L 675.5 759 L 661.5 759 L 639.5 754 Q 627.3 749.7 620 740.5 L 616.5 736 L 607 727.5 L 601 713.5 L 599 692.5 L 600 691.5 L 601 675.5 L 605 658.5 L 605 652.5 L 604 651.5 L 604 638.5 L 603 637.5 L 603 617.5 L 607 604.5 L 617 589 L 626.5 582 L 636.5 577 L 658.5 572 Z " /><path fill="rgb(224,182,33)" stroke="rgb(224,182,33)" stroke-width="1" opacity="0.996078431372549" d="M 1739.5 588 L 1765.5 588 L 1766.5 589 L 1777.5 590 L 1788.5 593 Q 1796.5 595.5 1801 601.5 Q 1802.5 610.5 1796.5 612 L 1784.5 616 L 1764.5 617 L 1763.5 616 L 1753.5 616 L 1737.5 613 Q 1726.9 610.4 1720 605 Q 1718.4 602.9 1719 597.5 L 1727.5 591 L 1739.5 588 Z " /><path fill="rgb(224,182,33)" stroke="rgb(224,182,33)" stroke-width="1" opacity="0.996078431372549" d="M 1487.5 598 L 1492.5 598 L 1510.5 607 L 1533.5 613 L 1586.5 613 L 1602.5 610 L 1609 614.5 L 1610 620.5 L 1606.5 625 L 1601.5 627 L 1587.5 628 L 1586.5 629 L 1533.5 629 L 1505.5 622 L 1485.5 613 L 1483 610.5 L 1482 603.5 L 1485.5 599 L 1487.5 598 Z " /><path fill="rgb(224,182,33)" stroke="rgb(224,182,33)" stroke-width="1" opacity="0.996078431372549" d="M 1322.5 614 L 1344.5 615 L 1352.5 617 L 1362 623.5 L 1363 630.5 L 1358.5 634 L 1342.5 638 L 1334.5 638 L 1333.5 639 L 1306.5 639 L 1287.5 635 L 1283 630.5 Q 1283.3 625.8 1286.5 624 L 1299.5 618 L 1322.5 614 Z " /><path fill="rgb(224,182,33)" stroke="rgb(224,182,33)" stroke-width="1" opacity="0.996078431372549" d="M 1694.5 673 L 1701.5 674 L 1719.5 681 Q 1735.9 689.6 1748 702.5 L 1753 710.5 L 1753 717.5 Q 1749.7 723.2 1738.5 721 Q 1706.9 711.1 1688 688.5 L 1685 682.5 L 1685 678.5 L 1687.5 675 L 1694.5 673 Z " /><path fill="rgb(224,182,33)" stroke="rgb(224,182,33)" stroke-width="1" opacity="0.996078431372549" d="M 1409.5 684 Q 1415.9 684.1 1418 688.5 Q 1419.2 698.7 1415 703.5 L 1398.5 721 L 1380.5 732 L 1371.5 735 L 1363.5 736 L 1354 731.5 L 1353 724.5 L 1356 718.5 L 1369.5 705 Q 1385.5 690.5 1409.5 684 Z " /><path fill="rgb(224,182,33)" stroke="rgb(224,182,33)" stroke-width="1" opacity="0.996078431372549" d="M 1603.5 711 L 1611.5 713 L 1619 719.5 Q 1628.5 730.5 1633 746.5 L 1635 755.5 L 1635 770.5 L 1630.5 778 L 1623.5 780 Q 1616.1 777.9 1612 772.5 L 1599 750.5 L 1594 733.5 L 1594 719.5 L 1599.5 712 L 1603.5 711 Z " /><path fill="rgb(224,182,33)" stroke="rgb(224,182,33)" stroke-width="1" opacity="0.996078431372549" d="M 1505.5 715 Q 1512.8 713.8 1514 718.5 L 1515 720.5 L 1515 731.5 Q 1507.5 761 1487.5 778 Q 1484.8 780.8 1478.5 780 Q 1471.5 776.5 1474 763.5 Q 1480.8 735.8 1498.5 719 L 1505.5 715 Z " /></svg>